<svg id="visual" viewBox="0 0 300 300" width="300" height="300" xmlns="http://www.w3.org/2000/svg" xmlns:xlink="http://www.w3.org/1999/xlink" version="1.1"><rect x="0" y="0" width="300" height="300" fill="#d1e1b4"></rect><path d="M0 190L43 182L86 212L129 191L171 202L214 217L257 223L300 213L300 301L257 301L214 301L171 301L129 301L86 301L43 301L0 301Z" fill="#f5730a"></path><path d="M0 224L43 231L86 234L129 232L171 236L214 226L257 238L300 228L300 301L257 301L214 301L171 301L129 301L86 301L43 301L0 301Z" fill="#da5b09"></path><path d="M0 247L43 236L86 245L129 232L171 234L214 252L257 221L300 247L300 301L257 301L214 301L171 301L129 301L86 301L43 301L0 301Z" fill="#be4407"></path><path d="M0 248L43 245L86 243L129 250L171 262L214 256L257 268L300 254L300 301L257 301L214 301L171 301L129 301L86 301L43 301L0 301Z" fill="#a32d04"></path><path d="M0 274L43 268L86 268L129 274L171 269L214 265L257 266L300 275L300 301L257 301L214 301L171 301L129 301L86 301L43 301L0 301Z" fill="#871400"></path></svg>